<svg width="80.000000" height="80.000000" viewBox="0 0 80 80" fill="none" xmlns="http://www.w3.org/2000/svg" xmlns:xlink="http://www.w3.org/1999/xlink">
	<desc>
			Created with Pixso.
	</desc>
	<defs>
		<clipPath id="clip1_1213">
			<rect rx="0.000000" width="49.000000" height="49.000000" transform="translate(15.500000 15.500000)" fill="white" fill-opacity="0"/>
		</clipPath>
	</defs>
	<rect rx="8.000000" width="80.000000" height="80.000000" fill="#452534" fill-opacity="1.000000"/>
	<rect rx="0.000000" width="49.000000" height="49.000000" transform="translate(15.500000 15.500000)" fill="#FFFFFF" fill-opacity="0"/>
	<g clip-path="url(#clip1_1213)">
		<path d="M58.75 27.5L50.41 27.5C48.75 27.5 47.16 28.15 45.99 29.33C44.82 30.5 44.16 32.09 44.16 33.75C44.16 35.4 44.82 36.99 45.99 38.16C47.16 39.34 48.75 40 50.41 40L52.5 40C54.15 40 55.74 40.65 56.91 41.83C58.09 43 58.75 44.59 58.75 46.25C58.75 47.9 58.09 49.49 56.91 50.66C55.74 51.84 54.15 52.5 52.5 52.5L44.16 52.5" stroke="#FFFFFF" stroke-opacity="1.000000" stroke-width="2.000000" stroke-linejoin="round" stroke-linecap="round"/>
		<path d="M35.83 52.5L33.75 52.5C30.43 52.5 27.25 51.18 24.91 48.83C22.56 46.49 21.25 43.31 21.25 40C21.25 36.68 22.56 33.5 24.91 31.16C27.25 28.81 30.43 27.5 33.75 27.5L35.83 27.5" stroke="#FFFFFF" stroke-opacity="1.000000" stroke-width="2.000000" stroke-linejoin="round" stroke-linecap="round"/>
		<path d="M50.41 56.66L50.41 52.5" stroke="#FFFFFF" stroke-opacity="1.000000" stroke-width="2.000000" stroke-linejoin="round" stroke-linecap="round"/>
		<path d="M52.5 27.5L52.5 23.33" stroke="#FFFFFF" stroke-opacity="1.000000" stroke-width="2.000000" stroke-linejoin="round" stroke-linecap="round"/>
	</g>
</svg>
