<svg width="50.000000" height="51.487976" viewBox="0 0 50 51.488" fill="none" xmlns="http://www.w3.org/2000/svg" xmlns:xlink="http://www.w3.org/1999/xlink">
	<desc>
			Created with Pixso.
	</desc>
	<defs/>
	<g opacity="0.016893">
		<path id="Vector" d="M25 0C38.79 0 50 11.53 50 25.74C50 39.95 38.79 51.48 25 51.48C11.2 51.48 0 39.95 0 25.74C0 11.53 11.2 0 25 0Z" fill="#00BC4F" fill-opacity="1.000000" fill-rule="nonzero"/>
	</g>
	<g opacity="0.353972">
		<path id="Vector" d="M25 8.73C34.11 8.73 41.51 16.35 41.51 25.74C41.51 35.13 34.11 42.75 25 42.75C15.88 42.75 8.48 35.13 8.48 25.74C8.48 16.35 15.88 8.73 25 8.73Z" fill="#00BC4F" fill-opacity="1.000000" fill-rule="nonzero"/>
	</g>
	<g opacity="0.691051">
		<path id="Vector" d="M24.99 17.47C29.43 17.47 33.03 21.17 33.03 25.74C33.03 30.3 29.43 34.01 24.99 34.01C20.56 34.01 16.96 30.3 16.96 25.74C16.96 21.17 20.56 17.47 24.99 17.47Z" fill="#00BC4F" fill-opacity="1.000000" fill-rule="nonzero"/>
	</g>
</svg>
