<svg width="80.000000" height="80.000000" viewBox="0 0 80 80" fill="none" xmlns="http://www.w3.org/2000/svg" xmlns:xlink="http://www.w3.org/1999/xlink">
	<desc>
			Created with Pixso.
	</desc>
	<defs>
		<clipPath id="clip1_1166">
			<rect rx="0.000000" width="49.000000" height="49.000000" transform="translate(15.500000 15.500000)" fill="white" fill-opacity="0"/>
		</clipPath>
	</defs>
	<rect rx="8.000000" width="80.000000" height="80.000000" fill="#1D324B" fill-opacity="1.000000"/>
	<rect rx="0.000000" width="49.000000" height="49.000000" transform="translate(15.500000 15.500000)" fill="#FFFFFF" fill-opacity="0"/>
	<g clip-path="url(#clip1_1166)">
		<path d="M50.83 29.58C49.07 27.57 46.84 26.21 44.42 25.67C42.01 25.13 39.51 25.44 37.24 26.55C34.97 27.66 33.03 29.53 31.67 31.92C30.31 34.32 29.58 37.12 29.58 39.99C29.58 42.87 30.31 45.67 31.67 48.07C33.03 50.46 34.97 52.33 37.24 53.44C39.51 54.55 42.01 54.86 44.42 54.32C46.84 53.78 49.07 52.42 50.83 50.41" stroke="#FFFFFF" stroke-opacity="1.000000" stroke-width="2.000000" stroke-linejoin="round" stroke-linecap="round"/>
		<path d="M42.08 35.83L25.41 35.83M25.41 44.16L42.08 44.16" stroke="#FFFFFF" stroke-opacity="1.000000" stroke-width="2.000000" stroke-linejoin="round" stroke-linecap="round"/>
	</g>
</svg>
