<svg width="80.000000" height="80.000000" viewBox="0 0 80 80" fill="none" xmlns="http://www.w3.org/2000/svg" xmlns:xlink="http://www.w3.org/1999/xlink">
	<desc>
			Created with Pixso.
	</desc>
	<defs>
		<clipPath id="clip1_1149">
			<rect rx="0.000000" width="48.744793" height="48.744793" transform="translate(15.127604 16.127604)" fill="white" fill-opacity="0"/>
		</clipPath>
	</defs>
	<rect rx="8.000000" width="80.000000" height="80.000000" fill="#2C4D54" fill-opacity="1.000000"/>
	<rect rx="0.000000" width="48.744793" height="48.744793" transform="translate(15.127604 16.127604)" fill="#FFFFFF" fill-opacity="0"/>
	<g clip-path="url(#clip1_1149)">
		<path d="M44.09 46.62C44.09 46.21 43.93 45.82 43.64 45.54C43.35 45.25 42.96 45.09 42.56 45.09L36.43 45.09C36.03 45.09 35.64 45.25 35.35 45.54C35.06 45.82 34.9 46.21 34.9 46.62L34.9 55.81C34.9 56.21 34.74 56.6 34.45 56.89C34.17 57.18 33.78 57.34 33.37 57.34L24.18 57.34C23.78 57.34 23.39 57.18 23.1 56.89C22.81 56.6 22.65 56.21 22.65 55.81L22.65 38.1C22.65 37.89 22.7 37.68 22.79 37.49C22.87 37.29 22.99 37.12 23.15 36.97L38.46 23.06C38.74 22.8 39.11 22.66 39.5 22.66C39.88 22.66 40.25 22.8 40.53 23.06L55.84 36.97C56 37.12 56.12 37.29 56.2 37.49C56.29 37.68 56.34 37.89 56.34 38.1L56.34 55.81C56.34 56.21 56.18 56.6 55.89 56.89C55.6 57.18 55.21 57.34 54.81 57.34L45.62 57.34C45.21 57.34 44.82 57.18 44.54 56.89C44.25 56.6 44.09 56.21 44.09 55.81L44.09 46.62Z" stroke="#FFFFFF" stroke-opacity="1.000000" stroke-width="1.531250" stroke-linejoin="round"/>
	</g>
</svg>
