<svg width="80.000000" height="80.000000" viewBox="0 0 80 80" fill="none" xmlns="http://www.w3.org/2000/svg" xmlns:xlink="http://www.w3.org/1999/xlink">
	<desc>
			Created with Pixso.
	</desc>
	<defs>
		<clipPath id="clip1_1183">
			<rect rx="0.000000" width="49.000000" height="49.000000" transform="translate(15.500000 15.500000)" fill="white" fill-opacity="0"/>
		</clipPath>
	</defs>
	<rect rx="8.000000" width="80.000000" height="80.000000" fill="#5A4B2C" fill-opacity="1.000000"/>
	<rect rx="0.000000" width="49.000000" height="49.000000" transform="translate(15.500000 15.500000)" fill="#FFFFFF" fill-opacity="0"/>
	<g clip-path="url(#clip1_1183)">
		<path d="M31.66 54.58L31.66 25.41L38.95 25.41C40.18 25.41 41.4 25.65 42.54 26.13C43.68 26.6 44.71 27.29 45.58 28.16C46.45 29.03 47.14 30.06 47.61 31.2C48.09 32.34 48.33 33.56 48.33 34.79C48.33 36.02 48.09 37.24 47.61 38.37C47.14 39.51 46.45 40.55 45.58 41.42C44.71 42.29 43.68 42.98 42.54 43.45C41.4 43.92 40.18 44.16 38.95 44.16L31.66 44.16" stroke="#FFFFFF" stroke-opacity="1.000000" stroke-width="2.000000" stroke-linejoin="round" stroke-linecap="round"/>
		<path d="M52.5 31.66L27.5 31.66" stroke="#FFFFFF" stroke-opacity="1.000000" stroke-width="2.000000" stroke-linejoin="round" stroke-linecap="round"/>
		<path d="M52.5 37.91L27.5 37.91" stroke="#FFFFFF" stroke-opacity="1.000000" stroke-width="2.000000" stroke-linejoin="round" stroke-linecap="round"/>
	</g>
</svg>
