<svg width="80.000000" height="80.000000" viewBox="0 0 80 80" fill="none" xmlns="http://www.w3.org/2000/svg" xmlns:xlink="http://www.w3.org/1999/xlink">
	<desc>
			Created with Pixso.
	</desc>
	<defs>
		<clipPath id="clip1_1190">
			<rect rx="0.000000" width="49.000000" height="49.000000" transform="translate(15.500000 15.500000)" fill="white" fill-opacity="0"/>
		</clipPath>
	</defs>
	<rect rx="8.000000" width="80.000000" height="80.000000" fill="#4D505B" fill-opacity="1.000000"/>
	<rect rx="0.000000" width="49.000000" height="49.000000" transform="translate(15.500000 15.500000)" fill="#FFFFFF" fill-opacity="0"/>
	<g clip-path="url(#clip1_1190)">
		<path d="M46.25 33.75L46.25 50.41C46.25 51.52 46.68 52.58 47.47 53.36C48.25 54.14 49.31 54.58 50.41 54.58C51.52 54.58 52.58 54.14 53.36 53.36C54.14 52.58 54.58 51.52 54.58 50.41" stroke="#FFFFFF" stroke-opacity="1.000000" stroke-width="2.000000" stroke-linejoin="round" stroke-linecap="round"/>
		<path d="M54.58 33.75L25.41 33.75" stroke="#FFFFFF" stroke-opacity="1.000000" stroke-width="2.000000" stroke-linejoin="round" stroke-linecap="round"/>
		<path d="M54.58 25.41L25.41 25.41" stroke="#FFFFFF" stroke-opacity="1.000000" stroke-width="2.000000" stroke-linejoin="round" stroke-linecap="round"/>
		<path d="M33.75 33.75L33.75 42.08C33.75 47.29 32.36 50.41 29.58 54.58" stroke="#FFFFFF" stroke-opacity="1.000000" stroke-width="2.000000" stroke-linejoin="round" stroke-linecap="round"/>
	</g>
</svg>
